<mxfile host="app.diagrams.net" agent="Mozilla/5.0 (Windows NT 10.0; Win64; x64) AppleWebKit/537.36 (KHTML, like Gecko) Chrome/136.0.0.0 Safari/537.36 Edg/136.0.0.0" version="28.1.2">
  <diagram name="Page-1" id="GauKFMwQQ_OiIvDeH0_6">
    <mxGraphModel dx="1418" dy="760" grid="1" gridSize="10" guides="1" tooltips="1" connect="1" arrows="1" fold="1" page="1" pageScale="1" pageWidth="827" pageHeight="1169" math="0" shadow="0">
      <root>
        <mxCell id="0" />
        <mxCell id="1" parent="0" />
        <mxCell id="OtP46GeCXcJWr2-U4KM2-1" value="CTE MRP" style="shape=table;startSize=30;container=1;collapsible=1;childLayout=tableLayout;fixedRows=1;rowLines=0;fontStyle=1;align=center;resizeLast=1;html=1;" vertex="1" parent="1">
          <mxGeometry x="425" y="980" width="180" height="150" as="geometry" />
        </mxCell>
        <mxCell id="OtP46GeCXcJWr2-U4KM2-2" value="" style="shape=tableRow;horizontal=0;startSize=0;swimlaneHead=0;swimlaneBody=0;fillColor=none;collapsible=0;dropTarget=0;points=[[0,0.5],[1,0.5]];portConstraint=eastwest;top=0;left=0;right=0;bottom=1;" vertex="1" parent="OtP46GeCXcJWr2-U4KM2-1">
          <mxGeometry y="30" width="180" height="30" as="geometry" />
        </mxCell>
        <mxCell id="OtP46GeCXcJWr2-U4KM2-3" value="PK" style="shape=partialRectangle;connectable=0;fillColor=none;top=0;left=0;bottom=0;right=0;fontStyle=1;overflow=hidden;whiteSpace=wrap;html=1;" vertex="1" parent="OtP46GeCXcJWr2-U4KM2-2">
          <mxGeometry width="30" height="30" as="geometry">
            <mxRectangle width="30" height="30" as="alternateBounds" />
          </mxGeometry>
        </mxCell>
        <mxCell id="OtP46GeCXcJWr2-U4KM2-4" value="Material Code+Plant" style="shape=partialRectangle;connectable=0;fillColor=none;top=0;left=0;bottom=0;right=0;align=left;spacingLeft=6;fontStyle=5;overflow=hidden;whiteSpace=wrap;html=1;" vertex="1" parent="OtP46GeCXcJWr2-U4KM2-2">
          <mxGeometry x="30" width="150" height="30" as="geometry">
            <mxRectangle width="150" height="30" as="alternateBounds" />
          </mxGeometry>
        </mxCell>
        <mxCell id="OtP46GeCXcJWr2-U4KM2-5" value="" style="shape=tableRow;horizontal=0;startSize=0;swimlaneHead=0;swimlaneBody=0;fillColor=none;collapsible=0;dropTarget=0;points=[[0,0.5],[1,0.5]];portConstraint=eastwest;top=0;left=0;right=0;bottom=0;" vertex="1" parent="OtP46GeCXcJWr2-U4KM2-1">
          <mxGeometry y="60" width="180" height="30" as="geometry" />
        </mxCell>
        <mxCell id="OtP46GeCXcJWr2-U4KM2-6" value="" style="shape=partialRectangle;connectable=0;fillColor=none;top=0;left=0;bottom=0;right=0;editable=1;overflow=hidden;whiteSpace=wrap;html=1;" vertex="1" parent="OtP46GeCXcJWr2-U4KM2-5">
          <mxGeometry width="30" height="30" as="geometry">
            <mxRectangle width="30" height="30" as="alternateBounds" />
          </mxGeometry>
        </mxCell>
        <mxCell id="OtP46GeCXcJWr2-U4KM2-7" value="SysStart / End Time" style="shape=partialRectangle;connectable=0;fillColor=none;top=0;left=0;bottom=0;right=0;align=left;spacingLeft=6;overflow=hidden;whiteSpace=wrap;html=1;" vertex="1" parent="OtP46GeCXcJWr2-U4KM2-5">
          <mxGeometry x="30" width="150" height="30" as="geometry">
            <mxRectangle width="150" height="30" as="alternateBounds" />
          </mxGeometry>
        </mxCell>
        <mxCell id="OtP46GeCXcJWr2-U4KM2-8" value="" style="shape=tableRow;horizontal=0;startSize=0;swimlaneHead=0;swimlaneBody=0;fillColor=none;collapsible=0;dropTarget=0;points=[[0,0.5],[1,0.5]];portConstraint=eastwest;top=0;left=0;right=0;bottom=0;" vertex="1" parent="OtP46GeCXcJWr2-U4KM2-1">
          <mxGeometry y="90" width="180" height="30" as="geometry" />
        </mxCell>
        <mxCell id="OtP46GeCXcJWr2-U4KM2-9" value="" style="shape=partialRectangle;connectable=0;fillColor=none;top=0;left=0;bottom=0;right=0;editable=1;overflow=hidden;whiteSpace=wrap;html=1;" vertex="1" parent="OtP46GeCXcJWr2-U4KM2-8">
          <mxGeometry width="30" height="30" as="geometry">
            <mxRectangle width="30" height="30" as="alternateBounds" />
          </mxGeometry>
        </mxCell>
        <mxCell id="OtP46GeCXcJWr2-U4KM2-10" value="SLOC" style="shape=partialRectangle;connectable=0;fillColor=none;top=0;left=0;bottom=0;right=0;align=left;spacingLeft=6;overflow=hidden;whiteSpace=wrap;html=1;" vertex="1" parent="OtP46GeCXcJWr2-U4KM2-8">
          <mxGeometry x="30" width="150" height="30" as="geometry">
            <mxRectangle width="150" height="30" as="alternateBounds" />
          </mxGeometry>
        </mxCell>
        <mxCell id="OtP46GeCXcJWr2-U4KM2-11" value="" style="shape=tableRow;horizontal=0;startSize=0;swimlaneHead=0;swimlaneBody=0;fillColor=none;collapsible=0;dropTarget=0;points=[[0,0.5],[1,0.5]];portConstraint=eastwest;top=0;left=0;right=0;bottom=0;" vertex="1" parent="OtP46GeCXcJWr2-U4KM2-1">
          <mxGeometry y="120" width="180" height="30" as="geometry" />
        </mxCell>
        <mxCell id="OtP46GeCXcJWr2-U4KM2-12" value="" style="shape=partialRectangle;connectable=0;fillColor=none;top=0;left=0;bottom=0;right=0;editable=1;overflow=hidden;whiteSpace=wrap;html=1;" vertex="1" parent="OtP46GeCXcJWr2-U4KM2-11">
          <mxGeometry width="30" height="30" as="geometry">
            <mxRectangle width="30" height="30" as="alternateBounds" />
          </mxGeometry>
        </mxCell>
        <mxCell id="OtP46GeCXcJWr2-U4KM2-13" value="MRP Type" style="shape=partialRectangle;connectable=0;fillColor=none;top=0;left=0;bottom=0;right=0;align=left;spacingLeft=6;overflow=hidden;whiteSpace=wrap;html=1;" vertex="1" parent="OtP46GeCXcJWr2-U4KM2-11">
          <mxGeometry x="30" width="150" height="30" as="geometry">
            <mxRectangle width="150" height="30" as="alternateBounds" />
          </mxGeometry>
        </mxCell>
        <mxCell id="OtP46GeCXcJWr2-U4KM2-14" value="CTE MRP History" style="shape=table;startSize=30;container=1;collapsible=1;childLayout=tableLayout;fixedRows=1;rowLines=0;fontStyle=1;align=center;resizeLast=1;html=1;" vertex="1" parent="1">
          <mxGeometry x="435" y="1210" width="180" height="150" as="geometry" />
        </mxCell>
        <mxCell id="OtP46GeCXcJWr2-U4KM2-15" value="" style="shape=tableRow;horizontal=0;startSize=0;swimlaneHead=0;swimlaneBody=0;fillColor=none;collapsible=0;dropTarget=0;points=[[0,0.5],[1,0.5]];portConstraint=eastwest;top=0;left=0;right=0;bottom=1;" vertex="1" parent="OtP46GeCXcJWr2-U4KM2-14">
          <mxGeometry y="30" width="180" height="30" as="geometry" />
        </mxCell>
        <mxCell id="OtP46GeCXcJWr2-U4KM2-16" value="PK" style="shape=partialRectangle;connectable=0;fillColor=none;top=0;left=0;bottom=0;right=0;fontStyle=1;overflow=hidden;whiteSpace=wrap;html=1;" vertex="1" parent="OtP46GeCXcJWr2-U4KM2-15">
          <mxGeometry width="30" height="30" as="geometry">
            <mxRectangle width="30" height="30" as="alternateBounds" />
          </mxGeometry>
        </mxCell>
        <mxCell id="OtP46GeCXcJWr2-U4KM2-17" value="Material Code+Plant" style="shape=partialRectangle;connectable=0;fillColor=none;top=0;left=0;bottom=0;right=0;align=left;spacingLeft=6;fontStyle=5;overflow=hidden;whiteSpace=wrap;html=1;" vertex="1" parent="OtP46GeCXcJWr2-U4KM2-15">
          <mxGeometry x="30" width="150" height="30" as="geometry">
            <mxRectangle width="150" height="30" as="alternateBounds" />
          </mxGeometry>
        </mxCell>
        <mxCell id="OtP46GeCXcJWr2-U4KM2-18" value="" style="shape=tableRow;horizontal=0;startSize=0;swimlaneHead=0;swimlaneBody=0;fillColor=none;collapsible=0;dropTarget=0;points=[[0,0.5],[1,0.5]];portConstraint=eastwest;top=0;left=0;right=0;bottom=0;" vertex="1" parent="OtP46GeCXcJWr2-U4KM2-14">
          <mxGeometry y="60" width="180" height="30" as="geometry" />
        </mxCell>
        <mxCell id="OtP46GeCXcJWr2-U4KM2-19" value="" style="shape=partialRectangle;connectable=0;fillColor=none;top=0;left=0;bottom=0;right=0;editable=1;overflow=hidden;whiteSpace=wrap;html=1;" vertex="1" parent="OtP46GeCXcJWr2-U4KM2-18">
          <mxGeometry width="30" height="30" as="geometry">
            <mxRectangle width="30" height="30" as="alternateBounds" />
          </mxGeometry>
        </mxCell>
        <mxCell id="OtP46GeCXcJWr2-U4KM2-20" value="SysStart / End Time" style="shape=partialRectangle;connectable=0;fillColor=none;top=0;left=0;bottom=0;right=0;align=left;spacingLeft=6;overflow=hidden;whiteSpace=wrap;html=1;" vertex="1" parent="OtP46GeCXcJWr2-U4KM2-18">
          <mxGeometry x="30" width="150" height="30" as="geometry">
            <mxRectangle width="150" height="30" as="alternateBounds" />
          </mxGeometry>
        </mxCell>
        <mxCell id="OtP46GeCXcJWr2-U4KM2-21" value="" style="shape=tableRow;horizontal=0;startSize=0;swimlaneHead=0;swimlaneBody=0;fillColor=none;collapsible=0;dropTarget=0;points=[[0,0.5],[1,0.5]];portConstraint=eastwest;top=0;left=0;right=0;bottom=0;" vertex="1" parent="OtP46GeCXcJWr2-U4KM2-14">
          <mxGeometry y="90" width="180" height="30" as="geometry" />
        </mxCell>
        <mxCell id="OtP46GeCXcJWr2-U4KM2-22" value="" style="shape=partialRectangle;connectable=0;fillColor=none;top=0;left=0;bottom=0;right=0;editable=1;overflow=hidden;whiteSpace=wrap;html=1;" vertex="1" parent="OtP46GeCXcJWr2-U4KM2-21">
          <mxGeometry width="30" height="30" as="geometry">
            <mxRectangle width="30" height="30" as="alternateBounds" />
          </mxGeometry>
        </mxCell>
        <mxCell id="OtP46GeCXcJWr2-U4KM2-23" value="SLOC" style="shape=partialRectangle;connectable=0;fillColor=none;top=0;left=0;bottom=0;right=0;align=left;spacingLeft=6;overflow=hidden;whiteSpace=wrap;html=1;" vertex="1" parent="OtP46GeCXcJWr2-U4KM2-21">
          <mxGeometry x="30" width="150" height="30" as="geometry">
            <mxRectangle width="150" height="30" as="alternateBounds" />
          </mxGeometry>
        </mxCell>
        <mxCell id="OtP46GeCXcJWr2-U4KM2-24" value="" style="shape=tableRow;horizontal=0;startSize=0;swimlaneHead=0;swimlaneBody=0;fillColor=none;collapsible=0;dropTarget=0;points=[[0,0.5],[1,0.5]];portConstraint=eastwest;top=0;left=0;right=0;bottom=0;" vertex="1" parent="OtP46GeCXcJWr2-U4KM2-14">
          <mxGeometry y="120" width="180" height="30" as="geometry" />
        </mxCell>
        <mxCell id="OtP46GeCXcJWr2-U4KM2-25" value="" style="shape=partialRectangle;connectable=0;fillColor=none;top=0;left=0;bottom=0;right=0;editable=1;overflow=hidden;whiteSpace=wrap;html=1;" vertex="1" parent="OtP46GeCXcJWr2-U4KM2-24">
          <mxGeometry width="30" height="30" as="geometry">
            <mxRectangle width="30" height="30" as="alternateBounds" />
          </mxGeometry>
        </mxCell>
        <mxCell id="OtP46GeCXcJWr2-U4KM2-26" value="MRP Type" style="shape=partialRectangle;connectable=0;fillColor=none;top=0;left=0;bottom=0;right=0;align=left;spacingLeft=6;overflow=hidden;whiteSpace=wrap;html=1;" vertex="1" parent="OtP46GeCXcJWr2-U4KM2-24">
          <mxGeometry x="30" width="150" height="30" as="geometry">
            <mxRectangle width="150" height="30" as="alternateBounds" />
          </mxGeometry>
        </mxCell>
        <mxCell id="OtP46GeCXcJWr2-U4KM2-27" value="CTE d2 (agg from delievery)" style="shape=table;startSize=30;container=1;collapsible=1;childLayout=tableLayout;fixedRows=1;rowLines=0;fontStyle=1;align=center;resizeLast=1;html=1;" vertex="1" parent="1">
          <mxGeometry x="425" y="740" width="220" height="150" as="geometry" />
        </mxCell>
        <mxCell id="OtP46GeCXcJWr2-U4KM2-28" value="" style="shape=tableRow;horizontal=0;startSize=0;swimlaneHead=0;swimlaneBody=0;fillColor=none;collapsible=0;dropTarget=0;points=[[0,0.5],[1,0.5]];portConstraint=eastwest;top=0;left=0;right=0;bottom=1;" vertex="1" parent="OtP46GeCXcJWr2-U4KM2-27">
          <mxGeometry y="30" width="220" height="30" as="geometry" />
        </mxCell>
        <mxCell id="OtP46GeCXcJWr2-U4KM2-29" value="PK" style="shape=partialRectangle;connectable=0;fillColor=none;top=0;left=0;bottom=0;right=0;fontStyle=1;overflow=hidden;whiteSpace=wrap;html=1;" vertex="1" parent="OtP46GeCXcJWr2-U4KM2-28">
          <mxGeometry width="30" height="30" as="geometry">
            <mxRectangle width="30" height="30" as="alternateBounds" />
          </mxGeometry>
        </mxCell>
        <mxCell id="OtP46GeCXcJWr2-U4KM2-30" value="PO Number+Line+Issued date" style="shape=partialRectangle;connectable=0;fillColor=none;top=0;left=0;bottom=0;right=0;align=left;spacingLeft=6;fontStyle=5;overflow=hidden;whiteSpace=wrap;html=1;" vertex="1" parent="OtP46GeCXcJWr2-U4KM2-28">
          <mxGeometry x="30" width="190" height="30" as="geometry">
            <mxRectangle width="190" height="30" as="alternateBounds" />
          </mxGeometry>
        </mxCell>
        <mxCell id="OtP46GeCXcJWr2-U4KM2-31" value="" style="shape=tableRow;horizontal=0;startSize=0;swimlaneHead=0;swimlaneBody=0;fillColor=none;collapsible=0;dropTarget=0;points=[[0,0.5],[1,0.5]];portConstraint=eastwest;top=0;left=0;right=0;bottom=0;" vertex="1" parent="OtP46GeCXcJWr2-U4KM2-27">
          <mxGeometry y="60" width="220" height="30" as="geometry" />
        </mxCell>
        <mxCell id="OtP46GeCXcJWr2-U4KM2-32" value="" style="shape=partialRectangle;connectable=0;fillColor=none;top=0;left=0;bottom=0;right=0;editable=1;overflow=hidden;whiteSpace=wrap;html=1;" vertex="1" parent="OtP46GeCXcJWr2-U4KM2-31">
          <mxGeometry width="30" height="30" as="geometry">
            <mxRectangle width="30" height="30" as="alternateBounds" />
          </mxGeometry>
        </mxCell>
        <mxCell id="OtP46GeCXcJWr2-U4KM2-33" value="&lt;div style=&quot;color: rgb(33, 33, 33); background-color: rgb(255, 255, 254); font-family: Consolas, &amp;quot;Courier New&amp;quot;, monospace; line-height: 16px; white-space: pre;&quot;&gt;total_qty_issued&lt;/div&gt;" style="shape=partialRectangle;connectable=0;fillColor=none;top=0;left=0;bottom=0;right=0;align=left;spacingLeft=6;overflow=hidden;whiteSpace=wrap;html=1;" vertex="1" parent="OtP46GeCXcJWr2-U4KM2-31">
          <mxGeometry x="30" width="190" height="30" as="geometry">
            <mxRectangle width="190" height="30" as="alternateBounds" />
          </mxGeometry>
        </mxCell>
        <mxCell id="OtP46GeCXcJWr2-U4KM2-34" value="" style="shape=tableRow;horizontal=0;startSize=0;swimlaneHead=0;swimlaneBody=0;fillColor=none;collapsible=0;dropTarget=0;points=[[0,0.5],[1,0.5]];portConstraint=eastwest;top=0;left=0;right=0;bottom=0;" vertex="1" parent="OtP46GeCXcJWr2-U4KM2-27">
          <mxGeometry y="90" width="220" height="30" as="geometry" />
        </mxCell>
        <mxCell id="OtP46GeCXcJWr2-U4KM2-35" value="" style="shape=partialRectangle;connectable=0;fillColor=none;top=0;left=0;bottom=0;right=0;editable=1;overflow=hidden;whiteSpace=wrap;html=1;" vertex="1" parent="OtP46GeCXcJWr2-U4KM2-34">
          <mxGeometry width="30" height="30" as="geometry">
            <mxRectangle width="30" height="30" as="alternateBounds" />
          </mxGeometry>
        </mxCell>
        <mxCell id="OtP46GeCXcJWr2-U4KM2-36" value="&lt;div style=&quot;color: rgb(33, 33, 33); background-color: rgb(255, 255, 254); font-family: Consolas, &amp;quot;Courier New&amp;quot;, monospace; line-height: 16px; white-space: pre;&quot;&gt;total_Matdoc_Qty&lt;/div&gt;" style="shape=partialRectangle;connectable=0;fillColor=none;top=0;left=0;bottom=0;right=0;align=left;spacingLeft=6;overflow=hidden;whiteSpace=wrap;html=1;" vertex="1" parent="OtP46GeCXcJWr2-U4KM2-34">
          <mxGeometry x="30" width="190" height="30" as="geometry">
            <mxRectangle width="190" height="30" as="alternateBounds" />
          </mxGeometry>
        </mxCell>
        <mxCell id="OtP46GeCXcJWr2-U4KM2-37" value="" style="shape=tableRow;horizontal=0;startSize=0;swimlaneHead=0;swimlaneBody=0;fillColor=none;collapsible=0;dropTarget=0;points=[[0,0.5],[1,0.5]];portConstraint=eastwest;top=0;left=0;right=0;bottom=0;" vertex="1" parent="OtP46GeCXcJWr2-U4KM2-27">
          <mxGeometry y="120" width="220" height="30" as="geometry" />
        </mxCell>
        <mxCell id="OtP46GeCXcJWr2-U4KM2-38" value="" style="shape=partialRectangle;connectable=0;fillColor=none;top=0;left=0;bottom=0;right=0;editable=1;overflow=hidden;whiteSpace=wrap;html=1;" vertex="1" parent="OtP46GeCXcJWr2-U4KM2-37">
          <mxGeometry width="30" height="30" as="geometry">
            <mxRectangle width="30" height="30" as="alternateBounds" />
          </mxGeometry>
        </mxCell>
        <mxCell id="OtP46GeCXcJWr2-U4KM2-39" value="&lt;div style=&quot;color: rgb(33, 33, 33); background-color: rgb(255, 255, 254); font-family: Consolas, &amp;quot;Courier New&amp;quot;, monospace; line-height: 16px; white-space: pre;&quot;&gt;issued date&lt;/div&gt;" style="shape=partialRectangle;connectable=0;fillColor=none;top=0;left=0;bottom=0;right=0;align=left;spacingLeft=6;overflow=hidden;whiteSpace=wrap;html=1;" vertex="1" parent="OtP46GeCXcJWr2-U4KM2-37">
          <mxGeometry x="30" width="190" height="30" as="geometry">
            <mxRectangle width="190" height="30" as="alternateBounds" />
          </mxGeometry>
        </mxCell>
        <mxCell id="OtP46GeCXcJWr2-U4KM2-40" value="CTE dd (from delivery, most granular level)" style="shape=table;startSize=30;container=1;collapsible=1;childLayout=tableLayout;fixedRows=1;rowLines=0;fontStyle=1;align=center;resizeLast=1;html=1;" vertex="1" parent="1">
          <mxGeometry x="390" y="520" width="290" height="150" as="geometry" />
        </mxCell>
        <mxCell id="OtP46GeCXcJWr2-U4KM2-41" value="" style="shape=tableRow;horizontal=0;startSize=0;swimlaneHead=0;swimlaneBody=0;fillColor=none;collapsible=0;dropTarget=0;points=[[0,0.5],[1,0.5]];portConstraint=eastwest;top=0;left=0;right=0;bottom=1;" vertex="1" parent="OtP46GeCXcJWr2-U4KM2-40">
          <mxGeometry y="30" width="290" height="30" as="geometry" />
        </mxCell>
        <mxCell id="OtP46GeCXcJWr2-U4KM2-42" value="PK" style="shape=partialRectangle;connectable=0;fillColor=none;top=0;left=0;bottom=0;right=0;fontStyle=1;overflow=hidden;whiteSpace=wrap;html=1;" vertex="1" parent="OtP46GeCXcJWr2-U4KM2-41">
          <mxGeometry width="30" height="30" as="geometry">
            <mxRectangle width="30" height="30" as="alternateBounds" />
          </mxGeometry>
        </mxCell>
        <mxCell id="OtP46GeCXcJWr2-U4KM2-43" value="Material Code+PO Line / Number+Delivery" style="shape=partialRectangle;connectable=0;fillColor=none;top=0;left=0;bottom=0;right=0;align=left;spacingLeft=6;fontStyle=5;overflow=hidden;whiteSpace=wrap;html=1;" vertex="1" parent="OtP46GeCXcJWr2-U4KM2-41">
          <mxGeometry x="30" width="260" height="30" as="geometry">
            <mxRectangle width="260" height="30" as="alternateBounds" />
          </mxGeometry>
        </mxCell>
        <mxCell id="OtP46GeCXcJWr2-U4KM2-44" value="" style="shape=tableRow;horizontal=0;startSize=0;swimlaneHead=0;swimlaneBody=0;fillColor=none;collapsible=0;dropTarget=0;points=[[0,0.5],[1,0.5]];portConstraint=eastwest;top=0;left=0;right=0;bottom=0;" vertex="1" parent="OtP46GeCXcJWr2-U4KM2-40">
          <mxGeometry y="60" width="290" height="30" as="geometry" />
        </mxCell>
        <mxCell id="OtP46GeCXcJWr2-U4KM2-45" value="" style="shape=partialRectangle;connectable=0;fillColor=none;top=0;left=0;bottom=0;right=0;editable=1;overflow=hidden;whiteSpace=wrap;html=1;" vertex="1" parent="OtP46GeCXcJWr2-U4KM2-44">
          <mxGeometry width="30" height="30" as="geometry">
            <mxRectangle width="30" height="30" as="alternateBounds" />
          </mxGeometry>
        </mxCell>
        <mxCell id="OtP46GeCXcJWr2-U4KM2-46" value="Issued Date" style="shape=partialRectangle;connectable=0;fillColor=none;top=0;left=0;bottom=0;right=0;align=left;spacingLeft=6;overflow=hidden;whiteSpace=wrap;html=1;" vertex="1" parent="OtP46GeCXcJWr2-U4KM2-44">
          <mxGeometry x="30" width="260" height="30" as="geometry">
            <mxRectangle width="260" height="30" as="alternateBounds" />
          </mxGeometry>
        </mxCell>
        <mxCell id="OtP46GeCXcJWr2-U4KM2-47" value="" style="shape=tableRow;horizontal=0;startSize=0;swimlaneHead=0;swimlaneBody=0;fillColor=none;collapsible=0;dropTarget=0;points=[[0,0.5],[1,0.5]];portConstraint=eastwest;top=0;left=0;right=0;bottom=0;" vertex="1" parent="OtP46GeCXcJWr2-U4KM2-40">
          <mxGeometry y="90" width="290" height="30" as="geometry" />
        </mxCell>
        <mxCell id="OtP46GeCXcJWr2-U4KM2-48" value="" style="shape=partialRectangle;connectable=0;fillColor=none;top=0;left=0;bottom=0;right=0;editable=1;overflow=hidden;whiteSpace=wrap;html=1;" vertex="1" parent="OtP46GeCXcJWr2-U4KM2-47">
          <mxGeometry width="30" height="30" as="geometry">
            <mxRectangle width="30" height="30" as="alternateBounds" />
          </mxGeometry>
        </mxCell>
        <mxCell id="OtP46GeCXcJWr2-U4KM2-49" value="&lt;div style=&quot;color: rgb(33, 33, 33); background-color: rgb(255, 255, 254); font-family: Consolas, &amp;quot;Courier New&amp;quot;, monospace; line-height: 16px; white-space: pre;&quot;&gt;Actual_Qty_Issued&lt;/div&gt;" style="shape=partialRectangle;connectable=0;fillColor=none;top=0;left=0;bottom=0;right=0;align=left;spacingLeft=6;overflow=hidden;whiteSpace=wrap;html=1;" vertex="1" parent="OtP46GeCXcJWr2-U4KM2-47">
          <mxGeometry x="30" width="260" height="30" as="geometry">
            <mxRectangle width="260" height="30" as="alternateBounds" />
          </mxGeometry>
        </mxCell>
        <mxCell id="OtP46GeCXcJWr2-U4KM2-50" value="" style="shape=tableRow;horizontal=0;startSize=0;swimlaneHead=0;swimlaneBody=0;fillColor=none;collapsible=0;dropTarget=0;points=[[0,0.5],[1,0.5]];portConstraint=eastwest;top=0;left=0;right=0;bottom=0;" vertex="1" parent="OtP46GeCXcJWr2-U4KM2-40">
          <mxGeometry y="120" width="290" height="30" as="geometry" />
        </mxCell>
        <mxCell id="OtP46GeCXcJWr2-U4KM2-51" value="" style="shape=partialRectangle;connectable=0;fillColor=none;top=0;left=0;bottom=0;right=0;editable=1;overflow=hidden;whiteSpace=wrap;html=1;" vertex="1" parent="OtP46GeCXcJWr2-U4KM2-50">
          <mxGeometry width="30" height="30" as="geometry">
            <mxRectangle width="30" height="30" as="alternateBounds" />
          </mxGeometry>
        </mxCell>
        <mxCell id="OtP46GeCXcJWr2-U4KM2-52" value="&lt;div style=&quot;color: rgb(33, 33, 33); background-color: rgb(255, 255, 254); font-family: Consolas, &amp;quot;Courier New&amp;quot;, monospace; line-height: 16px; white-space: pre;&quot;&gt;MatDoc_Qty&lt;/div&gt;" style="shape=partialRectangle;connectable=0;fillColor=none;top=0;left=0;bottom=0;right=0;align=left;spacingLeft=6;overflow=hidden;whiteSpace=wrap;html=1;" vertex="1" parent="OtP46GeCXcJWr2-U4KM2-50">
          <mxGeometry x="30" width="260" height="30" as="geometry">
            <mxRectangle width="260" height="30" as="alternateBounds" />
          </mxGeometry>
        </mxCell>
        <mxCell id="OtP46GeCXcJWr2-U4KM2-53" value="Main Table Purchase Order" style="shape=table;startSize=30;container=1;collapsible=1;childLayout=tableLayout;fixedRows=1;rowLines=0;fontStyle=1;align=center;resizeLast=1;html=1;" vertex="1" parent="1">
          <mxGeometry x="465" y="310" width="240" height="150" as="geometry" />
        </mxCell>
        <mxCell id="OtP46GeCXcJWr2-U4KM2-54" value="" style="shape=tableRow;horizontal=0;startSize=0;swimlaneHead=0;swimlaneBody=0;fillColor=none;collapsible=0;dropTarget=0;points=[[0,0.5],[1,0.5]];portConstraint=eastwest;top=0;left=0;right=0;bottom=1;" vertex="1" parent="OtP46GeCXcJWr2-U4KM2-53">
          <mxGeometry y="30" width="240" height="30" as="geometry" />
        </mxCell>
        <mxCell id="OtP46GeCXcJWr2-U4KM2-55" value="PK" style="shape=partialRectangle;connectable=0;fillColor=none;top=0;left=0;bottom=0;right=0;fontStyle=1;overflow=hidden;whiteSpace=wrap;html=1;" vertex="1" parent="OtP46GeCXcJWr2-U4KM2-54">
          <mxGeometry width="30" height="30" as="geometry">
            <mxRectangle width="30" height="30" as="alternateBounds" />
          </mxGeometry>
        </mxCell>
        <mxCell id="OtP46GeCXcJWr2-U4KM2-56" value="Material Code+PO Line / Number" style="shape=partialRectangle;connectable=0;fillColor=none;top=0;left=0;bottom=0;right=0;align=left;spacingLeft=6;fontStyle=5;overflow=hidden;whiteSpace=wrap;html=1;" vertex="1" parent="OtP46GeCXcJWr2-U4KM2-54">
          <mxGeometry x="30" width="210" height="30" as="geometry">
            <mxRectangle width="210" height="30" as="alternateBounds" />
          </mxGeometry>
        </mxCell>
        <mxCell id="OtP46GeCXcJWr2-U4KM2-57" value="" style="shape=tableRow;horizontal=0;startSize=0;swimlaneHead=0;swimlaneBody=0;fillColor=none;collapsible=0;dropTarget=0;points=[[0,0.5],[1,0.5]];portConstraint=eastwest;top=0;left=0;right=0;bottom=0;" vertex="1" parent="OtP46GeCXcJWr2-U4KM2-53">
          <mxGeometry y="60" width="240" height="30" as="geometry" />
        </mxCell>
        <mxCell id="OtP46GeCXcJWr2-U4KM2-58" value="" style="shape=partialRectangle;connectable=0;fillColor=none;top=0;left=0;bottom=0;right=0;editable=1;overflow=hidden;whiteSpace=wrap;html=1;" vertex="1" parent="OtP46GeCXcJWr2-U4KM2-57">
          <mxGeometry width="30" height="30" as="geometry">
            <mxRectangle width="30" height="30" as="alternateBounds" />
          </mxGeometry>
        </mxCell>
        <mxCell id="OtP46GeCXcJWr2-U4KM2-59" value="order date" style="shape=partialRectangle;connectable=0;fillColor=none;top=0;left=0;bottom=0;right=0;align=left;spacingLeft=6;overflow=hidden;whiteSpace=wrap;html=1;" vertex="1" parent="OtP46GeCXcJWr2-U4KM2-57">
          <mxGeometry x="30" width="210" height="30" as="geometry">
            <mxRectangle width="210" height="30" as="alternateBounds" />
          </mxGeometry>
        </mxCell>
        <mxCell id="OtP46GeCXcJWr2-U4KM2-60" value="" style="shape=tableRow;horizontal=0;startSize=0;swimlaneHead=0;swimlaneBody=0;fillColor=none;collapsible=0;dropTarget=0;points=[[0,0.5],[1,0.5]];portConstraint=eastwest;top=0;left=0;right=0;bottom=0;" vertex="1" parent="OtP46GeCXcJWr2-U4KM2-53">
          <mxGeometry y="90" width="240" height="30" as="geometry" />
        </mxCell>
        <mxCell id="OtP46GeCXcJWr2-U4KM2-61" value="" style="shape=partialRectangle;connectable=0;fillColor=none;top=0;left=0;bottom=0;right=0;editable=1;overflow=hidden;whiteSpace=wrap;html=1;" vertex="1" parent="OtP46GeCXcJWr2-U4KM2-60">
          <mxGeometry width="30" height="30" as="geometry">
            <mxRectangle width="30" height="30" as="alternateBounds" />
          </mxGeometry>
        </mxCell>
        <mxCell id="OtP46GeCXcJWr2-U4KM2-62" value="&lt;div style=&quot;color: rgb(33, 33, 33); background-color: rgb(255, 255, 254); font-family: Consolas, &amp;quot;Courier New&amp;quot;, monospace; line-height: 16px; white-space: pre;&quot;&gt;Actual_Qty_Issued&lt;/div&gt;" style="shape=partialRectangle;connectable=0;fillColor=none;top=0;left=0;bottom=0;right=0;align=left;spacingLeft=6;overflow=hidden;whiteSpace=wrap;html=1;" vertex="1" parent="OtP46GeCXcJWr2-U4KM2-60">
          <mxGeometry x="30" width="210" height="30" as="geometry">
            <mxRectangle width="210" height="30" as="alternateBounds" />
          </mxGeometry>
        </mxCell>
        <mxCell id="OtP46GeCXcJWr2-U4KM2-63" value="" style="shape=tableRow;horizontal=0;startSize=0;swimlaneHead=0;swimlaneBody=0;fillColor=none;collapsible=0;dropTarget=0;points=[[0,0.5],[1,0.5]];portConstraint=eastwest;top=0;left=0;right=0;bottom=0;" vertex="1" parent="OtP46GeCXcJWr2-U4KM2-53">
          <mxGeometry y="120" width="240" height="30" as="geometry" />
        </mxCell>
        <mxCell id="OtP46GeCXcJWr2-U4KM2-64" value="" style="shape=partialRectangle;connectable=0;fillColor=none;top=0;left=0;bottom=0;right=0;editable=1;overflow=hidden;whiteSpace=wrap;html=1;" vertex="1" parent="OtP46GeCXcJWr2-U4KM2-63">
          <mxGeometry width="30" height="30" as="geometry">
            <mxRectangle width="30" height="30" as="alternateBounds" />
          </mxGeometry>
        </mxCell>
        <mxCell id="OtP46GeCXcJWr2-U4KM2-65" value="&lt;div style=&quot;color: rgb(33, 33, 33); background-color: rgb(255, 255, 254); font-family: Consolas, &amp;quot;Courier New&amp;quot;, monospace; line-height: 16px; white-space: pre;&quot;&gt;MatDoc_Qty&lt;/div&gt;" style="shape=partialRectangle;connectable=0;fillColor=none;top=0;left=0;bottom=0;right=0;align=left;spacingLeft=6;overflow=hidden;whiteSpace=wrap;html=1;" vertex="1" parent="OtP46GeCXcJWr2-U4KM2-63">
          <mxGeometry x="30" width="210" height="30" as="geometry">
            <mxRectangle width="210" height="30" as="alternateBounds" />
          </mxGeometry>
        </mxCell>
        <mxCell id="OtP46GeCXcJWr2-U4KM2-66" value="&lt;span style=&quot;font-weight: 700; text-wrap-mode: nowrap;&quot;&gt;Main Table Purchase Order&lt;/span&gt;" style="ellipse;whiteSpace=wrap;html=1;" vertex="1" parent="1">
          <mxGeometry x="755" y="340" width="280" height="120" as="geometry" />
        </mxCell>
        <mxCell id="OtP46GeCXcJWr2-U4KM2-67" value="Left join with&amp;nbsp;&lt;span style=&quot;font-weight: 700; text-wrap-mode: nowrap;&quot;&gt;&lt;font style=&quot;color: rgb(255, 48, 25);&quot;&gt;CTE dd (from delivery, most granular level)&lt;/font&gt;&lt;/span&gt;&lt;div&gt;&lt;span style=&quot;font-weight: 700; text-wrap-mode: nowrap;&quot;&gt;on Material Code, PO Number, PO Line&lt;/span&gt;&lt;/div&gt;&lt;div&gt;&lt;span style=&quot;font-weight: 700; text-wrap-mode: nowrap;&quot;&gt;&lt;br&gt;&lt;/span&gt;&lt;/div&gt;&lt;div&gt;&lt;span style=&quot;font-weight: 700; text-wrap-mode: nowrap;&quot;&gt;&lt;br&gt;&lt;/span&gt;&lt;/div&gt;&lt;div&gt;&lt;span style=&quot;font-weight: 700; text-wrap-mode: nowrap;&quot;&gt;*Note: It will create more rows because of dd is more&amp;nbsp;&lt;/span&gt;&lt;span style=&quot;font-weight: 700; text-wrap-mode: nowrap; background-color: transparent; color: light-dark(rgb(0, 0, 0), rgb(255, 255, 255));&quot;&gt;granular&lt;/span&gt;&lt;span style=&quot;font-weight: 700; text-wrap-mode: nowrap; background-color: transparent; color: light-dark(rgb(0, 0, 0), rgb(255, 255, 255));&quot;&gt;&amp;nbsp;&lt;/span&gt;&lt;span style=&quot;font-weight: 700; text-wrap-mode: nowrap; background-color: transparent; color: light-dark(rgb(0, 0, 0), rgb(255, 255, 255));&quot;&gt;&amp;nbsp;&lt;/span&gt;&lt;/div&gt;" style="rounded=0;whiteSpace=wrap;html=1;" vertex="1" parent="1">
          <mxGeometry x="725" y="540" width="380" height="110" as="geometry" />
        </mxCell>
        <mxCell id="OtP46GeCXcJWr2-U4KM2-68" value="" style="endArrow=classic;html=1;rounded=0;exitX=0.5;exitY=1;exitDx=0;exitDy=0;entryX=0.458;entryY=0.018;entryDx=0;entryDy=0;entryPerimeter=0;" edge="1" parent="1" source="OtP46GeCXcJWr2-U4KM2-66" target="OtP46GeCXcJWr2-U4KM2-67">
          <mxGeometry width="50" height="50" relative="1" as="geometry">
            <mxPoint x="795" y="320" as="sourcePoint" />
            <mxPoint x="845" y="270" as="targetPoint" />
          </mxGeometry>
        </mxCell>
        <mxCell id="OtP46GeCXcJWr2-U4KM2-69" value="After Left Join" style="shape=table;startSize=30;container=1;collapsible=1;childLayout=tableLayout;fixedRows=1;rowLines=0;fontStyle=1;align=center;resizeLast=1;html=1;" vertex="1" parent="1">
          <mxGeometry x="1255" y="240" width="290" height="210" as="geometry" />
        </mxCell>
        <mxCell id="OtP46GeCXcJWr2-U4KM2-70" value="" style="shape=tableRow;horizontal=0;startSize=0;swimlaneHead=0;swimlaneBody=0;fillColor=none;collapsible=0;dropTarget=0;points=[[0,0.5],[1,0.5]];portConstraint=eastwest;top=0;left=0;right=0;bottom=1;" vertex="1" parent="OtP46GeCXcJWr2-U4KM2-69">
          <mxGeometry y="30" width="290" height="30" as="geometry" />
        </mxCell>
        <mxCell id="OtP46GeCXcJWr2-U4KM2-71" value="PK" style="shape=partialRectangle;connectable=0;fillColor=none;top=0;left=0;bottom=0;right=0;fontStyle=1;overflow=hidden;whiteSpace=wrap;html=1;" vertex="1" parent="OtP46GeCXcJWr2-U4KM2-70">
          <mxGeometry width="30" height="30" as="geometry">
            <mxRectangle width="30" height="30" as="alternateBounds" />
          </mxGeometry>
        </mxCell>
        <mxCell id="OtP46GeCXcJWr2-U4KM2-72" value="Material Code+PO Line / Number+Delievery" style="shape=partialRectangle;connectable=0;fillColor=none;top=0;left=0;bottom=0;right=0;align=left;spacingLeft=6;fontStyle=5;overflow=hidden;whiteSpace=wrap;html=1;" vertex="1" parent="OtP46GeCXcJWr2-U4KM2-70">
          <mxGeometry x="30" width="260" height="30" as="geometry">
            <mxRectangle width="260" height="30" as="alternateBounds" />
          </mxGeometry>
        </mxCell>
        <mxCell id="OtP46GeCXcJWr2-U4KM2-73" value="" style="shape=tableRow;horizontal=0;startSize=0;swimlaneHead=0;swimlaneBody=0;fillColor=none;collapsible=0;dropTarget=0;points=[[0,0.5],[1,0.5]];portConstraint=eastwest;top=0;left=0;right=0;bottom=0;" vertex="1" parent="OtP46GeCXcJWr2-U4KM2-69">
          <mxGeometry y="60" width="290" height="30" as="geometry" />
        </mxCell>
        <mxCell id="OtP46GeCXcJWr2-U4KM2-74" value="" style="shape=partialRectangle;connectable=0;fillColor=none;top=0;left=0;bottom=0;right=0;editable=1;overflow=hidden;whiteSpace=wrap;html=1;" vertex="1" parent="OtP46GeCXcJWr2-U4KM2-73">
          <mxGeometry width="30" height="30" as="geometry">
            <mxRectangle width="30" height="30" as="alternateBounds" />
          </mxGeometry>
        </mxCell>
        <mxCell id="OtP46GeCXcJWr2-U4KM2-75" value="&lt;div style=&quot;color: rgb(33, 33, 33); background-color: rgb(255, 255, 254); font-family: Consolas, &amp;quot;Courier New&amp;quot;, monospace; line-height: 16px; white-space: pre;&quot;&gt;dd.Delivery_Note_Date&lt;/div&gt;" style="shape=partialRectangle;connectable=0;fillColor=none;top=0;left=0;bottom=0;right=0;align=left;spacingLeft=6;overflow=hidden;whiteSpace=wrap;html=1;" vertex="1" parent="OtP46GeCXcJWr2-U4KM2-73">
          <mxGeometry x="30" width="260" height="30" as="geometry">
            <mxRectangle width="260" height="30" as="alternateBounds" />
          </mxGeometry>
        </mxCell>
        <mxCell id="OtP46GeCXcJWr2-U4KM2-76" value="" style="shape=tableRow;horizontal=0;startSize=0;swimlaneHead=0;swimlaneBody=0;fillColor=none;collapsible=0;dropTarget=0;points=[[0,0.5],[1,0.5]];portConstraint=eastwest;top=0;left=0;right=0;bottom=0;" vertex="1" parent="OtP46GeCXcJWr2-U4KM2-69">
          <mxGeometry y="90" width="290" height="30" as="geometry" />
        </mxCell>
        <mxCell id="OtP46GeCXcJWr2-U4KM2-77" value="" style="shape=partialRectangle;connectable=0;fillColor=none;top=0;left=0;bottom=0;right=0;editable=1;overflow=hidden;whiteSpace=wrap;html=1;" vertex="1" parent="OtP46GeCXcJWr2-U4KM2-76">
          <mxGeometry width="30" height="30" as="geometry">
            <mxRectangle width="30" height="30" as="alternateBounds" />
          </mxGeometry>
        </mxCell>
        <mxCell id="OtP46GeCXcJWr2-U4KM2-78" value="&lt;div style=&quot;color: rgb(33, 33, 33); background-color: rgb(255, 255, 254); font-family: Consolas, &amp;quot;Courier New&amp;quot;, monospace; line-height: 16px; white-space: pre;&quot;&gt;&lt;div style=&quot;line-height: 16px;&quot;&gt;dd.[Issued_Date]&lt;/div&gt;&lt;/div&gt;" style="shape=partialRectangle;connectable=0;fillColor=none;top=0;left=0;bottom=0;right=0;align=left;spacingLeft=6;overflow=hidden;whiteSpace=wrap;html=1;" vertex="1" parent="OtP46GeCXcJWr2-U4KM2-76">
          <mxGeometry x="30" width="260" height="30" as="geometry">
            <mxRectangle width="260" height="30" as="alternateBounds" />
          </mxGeometry>
        </mxCell>
        <mxCell id="OtP46GeCXcJWr2-U4KM2-79" value="" style="shape=tableRow;horizontal=0;startSize=0;swimlaneHead=0;swimlaneBody=0;fillColor=none;collapsible=0;dropTarget=0;points=[[0,0.5],[1,0.5]];portConstraint=eastwest;top=0;left=0;right=0;bottom=0;" vertex="1" parent="OtP46GeCXcJWr2-U4KM2-69">
          <mxGeometry y="120" width="290" height="30" as="geometry" />
        </mxCell>
        <mxCell id="OtP46GeCXcJWr2-U4KM2-80" value="" style="shape=partialRectangle;connectable=0;fillColor=none;top=0;left=0;bottom=0;right=0;editable=1;overflow=hidden;whiteSpace=wrap;html=1;" vertex="1" parent="OtP46GeCXcJWr2-U4KM2-79">
          <mxGeometry width="30" height="30" as="geometry">
            <mxRectangle width="30" height="30" as="alternateBounds" />
          </mxGeometry>
        </mxCell>
        <mxCell id="OtP46GeCXcJWr2-U4KM2-81" value="&lt;div style=&quot;color: rgb(33, 33, 33); background-color: rgb(255, 255, 254); font-family: Consolas, &amp;quot;Courier New&amp;quot;, monospace; line-height: 16px; white-space: pre;&quot;&gt;&lt;div style=&quot;line-height: 16px;&quot;&gt;dd.[MatDoc_Qty] &lt;span style=&quot;color: #0000ff;&quot;&gt;as&lt;/span&gt; [Quantity]&lt;/div&gt;&lt;/div&gt;" style="shape=partialRectangle;connectable=0;fillColor=none;top=0;left=0;bottom=0;right=0;align=left;spacingLeft=6;overflow=hidden;whiteSpace=wrap;html=1;" vertex="1" parent="OtP46GeCXcJWr2-U4KM2-79">
          <mxGeometry x="30" width="260" height="30" as="geometry">
            <mxRectangle width="260" height="30" as="alternateBounds" />
          </mxGeometry>
        </mxCell>
        <mxCell id="OtP46GeCXcJWr2-U4KM2-82" value="" style="shape=tableRow;horizontal=0;startSize=0;swimlaneHead=0;swimlaneBody=0;fillColor=none;collapsible=0;dropTarget=0;points=[[0,0.5],[1,0.5]];portConstraint=eastwest;top=0;left=0;right=0;bottom=0;" vertex="1" parent="OtP46GeCXcJWr2-U4KM2-69">
          <mxGeometry y="150" width="290" height="30" as="geometry" />
        </mxCell>
        <mxCell id="OtP46GeCXcJWr2-U4KM2-83" value="" style="shape=partialRectangle;connectable=0;fillColor=none;top=0;left=0;bottom=0;right=0;editable=1;overflow=hidden;whiteSpace=wrap;html=1;" vertex="1" parent="OtP46GeCXcJWr2-U4KM2-82">
          <mxGeometry width="30" height="30" as="geometry">
            <mxRectangle width="30" height="30" as="alternateBounds" />
          </mxGeometry>
        </mxCell>
        <mxCell id="OtP46GeCXcJWr2-U4KM2-84" value="&lt;div style=&quot;color: rgb(33, 33, 33); background-color: rgb(255, 255, 254); font-family: Consolas, &amp;quot;Courier New&amp;quot;, monospace; line-height: 16px; white-space: pre;&quot;&gt;other&lt;/div&gt;" style="shape=partialRectangle;connectable=0;fillColor=none;top=0;left=0;bottom=0;right=0;align=left;spacingLeft=6;overflow=hidden;whiteSpace=wrap;html=1;" vertex="1" parent="OtP46GeCXcJWr2-U4KM2-82">
          <mxGeometry x="30" width="260" height="30" as="geometry">
            <mxRectangle width="260" height="30" as="alternateBounds" />
          </mxGeometry>
        </mxCell>
        <mxCell id="OtP46GeCXcJWr2-U4KM2-85" value="" style="shape=tableRow;horizontal=0;startSize=0;swimlaneHead=0;swimlaneBody=0;fillColor=none;collapsible=0;dropTarget=0;points=[[0,0.5],[1,0.5]];portConstraint=eastwest;top=0;left=0;right=0;bottom=0;" vertex="1" parent="OtP46GeCXcJWr2-U4KM2-69">
          <mxGeometry y="180" width="290" height="30" as="geometry" />
        </mxCell>
        <mxCell id="OtP46GeCXcJWr2-U4KM2-86" value="" style="shape=partialRectangle;connectable=0;fillColor=none;top=0;left=0;bottom=0;right=0;editable=1;overflow=hidden;whiteSpace=wrap;html=1;" vertex="1" parent="OtP46GeCXcJWr2-U4KM2-85">
          <mxGeometry width="30" height="30" as="geometry">
            <mxRectangle width="30" height="30" as="alternateBounds" />
          </mxGeometry>
        </mxCell>
        <mxCell id="OtP46GeCXcJWr2-U4KM2-87" value="&lt;div style=&quot;color: rgb(33, 33, 33); background-color: rgb(255, 255, 254); font-family: Consolas, &amp;quot;Courier New&amp;quot;, monospace; line-height: 16px; white-space: pre;&quot;&gt;other&lt;/div&gt;" style="shape=partialRectangle;connectable=0;fillColor=none;top=0;left=0;bottom=0;right=0;align=left;spacingLeft=6;overflow=hidden;whiteSpace=wrap;html=1;" vertex="1" parent="OtP46GeCXcJWr2-U4KM2-85">
          <mxGeometry x="30" width="260" height="30" as="geometry">
            <mxRectangle width="260" height="30" as="alternateBounds" />
          </mxGeometry>
        </mxCell>
        <mxCell id="OtP46GeCXcJWr2-U4KM2-88" value="" style="shape=flexArrow;endArrow=classic;startArrow=classic;html=1;rounded=0;exitX=1;exitY=0.5;exitDx=0;exitDy=0;" edge="1" parent="1" source="OtP46GeCXcJWr2-U4KM2-67" target="OtP46GeCXcJWr2-U4KM2-70">
          <mxGeometry width="100" height="100" relative="1" as="geometry">
            <mxPoint x="755" y="400" as="sourcePoint" />
            <mxPoint x="855" y="300" as="targetPoint" />
          </mxGeometry>
        </mxCell>
        <mxCell id="OtP46GeCXcJWr2-U4KM2-89" value="Left join with&amp;nbsp;&lt;span style=&quot;font-weight: 700; text-wrap-mode: nowrap;&quot;&gt;&lt;font style=&quot;color: rgb(255, 48, 25);&quot;&gt;CTE d2 (agg from delivery, most granular level)&lt;/font&gt;&lt;/span&gt;&lt;div&gt;&lt;span style=&quot;font-weight: 700; text-wrap-mode: nowrap;&quot;&gt;on PO Number, Po LIne, Issued date (Between DD and D2)&lt;/span&gt;&lt;/div&gt;&lt;div&gt;&lt;span style=&quot;font-weight: 700; text-wrap-mode: nowrap;&quot;&gt;&lt;br&gt;&lt;/span&gt;&lt;/div&gt;&lt;div&gt;&lt;span style=&quot;font-weight: 700; text-wrap-mode: nowrap;&quot;&gt;&lt;br&gt;&lt;/span&gt;&lt;/div&gt;&lt;div&gt;&lt;span style=&quot;text-wrap-mode: nowrap;&quot;&gt;&lt;b&gt;&lt;font style=&quot;color: rgb(51, 51, 255);&quot;&gt;This step will not create more rows because d2 is agg level from dd&lt;/font&gt;&lt;/b&gt;&lt;/span&gt;&lt;/div&gt;" style="rounded=0;whiteSpace=wrap;html=1;" vertex="1" parent="1">
          <mxGeometry x="725" y="770" width="380" height="110" as="geometry" />
        </mxCell>
        <mxCell id="OtP46GeCXcJWr2-U4KM2-90" value="" style="endArrow=classic;html=1;rounded=0;exitX=0.5;exitY=1;exitDx=0;exitDy=0;entryX=0.5;entryY=0;entryDx=0;entryDy=0;" edge="1" parent="1" source="OtP46GeCXcJWr2-U4KM2-67" target="OtP46GeCXcJWr2-U4KM2-89">
          <mxGeometry width="50" height="50" relative="1" as="geometry">
            <mxPoint x="895" y="480" as="sourcePoint" />
            <mxPoint x="899" y="562" as="targetPoint" />
          </mxGeometry>
        </mxCell>
        <mxCell id="OtP46GeCXcJWr2-U4KM2-91" value="The purpose of d2 is to bring agg numbers but one PO number / line can have multiplie issued date.&lt;div&gt;&lt;br&gt;&lt;/div&gt;&lt;div&gt;I think one cte can be used to combine these 2 steps to make it clean&lt;/div&gt;" style="whiteSpace=wrap;html=1;aspect=fixed;" vertex="1" parent="1">
          <mxGeometry x="1345" y="779" width="140" height="140" as="geometry" />
        </mxCell>
        <mxCell id="OtP46GeCXcJWr2-U4KM2-92" value="" style="shape=flexArrow;endArrow=classic;startArrow=classic;html=1;rounded=0;exitX=1;exitY=0.5;exitDx=0;exitDy=0;entryX=0;entryY=0.5;entryDx=0;entryDy=0;" edge="1" parent="1" source="OtP46GeCXcJWr2-U4KM2-89" target="OtP46GeCXcJWr2-U4KM2-91">
          <mxGeometry width="100" height="100" relative="1" as="geometry">
            <mxPoint x="1175" y="621" as="sourcePoint" />
            <mxPoint x="1365" y="610" as="targetPoint" />
          </mxGeometry>
        </mxCell>
        <mxCell id="OtP46GeCXcJWr2-U4KM2-93" value="dd d2 left join" style="shape=table;startSize=30;container=1;collapsible=1;childLayout=tableLayout;fixedRows=1;rowLines=0;fontStyle=1;align=center;resizeLast=1;html=1;" vertex="1" parent="1">
          <mxGeometry x="1345" y="980" width="290" height="210" as="geometry" />
        </mxCell>
        <mxCell id="OtP46GeCXcJWr2-U4KM2-94" value="" style="shape=tableRow;horizontal=0;startSize=0;swimlaneHead=0;swimlaneBody=0;fillColor=none;collapsible=0;dropTarget=0;points=[[0,0.5],[1,0.5]];portConstraint=eastwest;top=0;left=0;right=0;bottom=1;" vertex="1" parent="OtP46GeCXcJWr2-U4KM2-93">
          <mxGeometry y="30" width="290" height="30" as="geometry" />
        </mxCell>
        <mxCell id="OtP46GeCXcJWr2-U4KM2-95" value="PK" style="shape=partialRectangle;connectable=0;fillColor=none;top=0;left=0;bottom=0;right=0;fontStyle=1;overflow=hidden;whiteSpace=wrap;html=1;" vertex="1" parent="OtP46GeCXcJWr2-U4KM2-94">
          <mxGeometry width="30" height="30" as="geometry">
            <mxRectangle width="30" height="30" as="alternateBounds" />
          </mxGeometry>
        </mxCell>
        <mxCell id="OtP46GeCXcJWr2-U4KM2-96" value="Material Code+PO Line / Number+Delivery" style="shape=partialRectangle;connectable=0;fillColor=none;top=0;left=0;bottom=0;right=0;align=left;spacingLeft=6;fontStyle=5;overflow=hidden;whiteSpace=wrap;html=1;" vertex="1" parent="OtP46GeCXcJWr2-U4KM2-94">
          <mxGeometry x="30" width="260" height="30" as="geometry">
            <mxRectangle width="260" height="30" as="alternateBounds" />
          </mxGeometry>
        </mxCell>
        <mxCell id="OtP46GeCXcJWr2-U4KM2-97" value="" style="shape=tableRow;horizontal=0;startSize=0;swimlaneHead=0;swimlaneBody=0;fillColor=none;collapsible=0;dropTarget=0;points=[[0,0.5],[1,0.5]];portConstraint=eastwest;top=0;left=0;right=0;bottom=0;" vertex="1" parent="OtP46GeCXcJWr2-U4KM2-93">
          <mxGeometry y="60" width="290" height="30" as="geometry" />
        </mxCell>
        <mxCell id="OtP46GeCXcJWr2-U4KM2-98" value="" style="shape=partialRectangle;connectable=0;fillColor=none;top=0;left=0;bottom=0;right=0;editable=1;overflow=hidden;whiteSpace=wrap;html=1;" vertex="1" parent="OtP46GeCXcJWr2-U4KM2-97">
          <mxGeometry width="30" height="30" as="geometry">
            <mxRectangle width="30" height="30" as="alternateBounds" />
          </mxGeometry>
        </mxCell>
        <mxCell id="OtP46GeCXcJWr2-U4KM2-99" value="&lt;div style=&quot;color: rgb(33, 33, 33); background-color: rgb(255, 255, 254); font-family: Consolas, &amp;quot;Courier New&amp;quot;, monospace; line-height: 16px; white-space: pre;&quot;&gt;dd.Delivery_Note_Date&lt;/div&gt;" style="shape=partialRectangle;connectable=0;fillColor=none;top=0;left=0;bottom=0;right=0;align=left;spacingLeft=6;overflow=hidden;whiteSpace=wrap;html=1;" vertex="1" parent="OtP46GeCXcJWr2-U4KM2-97">
          <mxGeometry x="30" width="260" height="30" as="geometry">
            <mxRectangle width="260" height="30" as="alternateBounds" />
          </mxGeometry>
        </mxCell>
        <mxCell id="OtP46GeCXcJWr2-U4KM2-100" value="" style="shape=tableRow;horizontal=0;startSize=0;swimlaneHead=0;swimlaneBody=0;fillColor=none;collapsible=0;dropTarget=0;points=[[0,0.5],[1,0.5]];portConstraint=eastwest;top=0;left=0;right=0;bottom=0;" vertex="1" parent="OtP46GeCXcJWr2-U4KM2-93">
          <mxGeometry y="90" width="290" height="30" as="geometry" />
        </mxCell>
        <mxCell id="OtP46GeCXcJWr2-U4KM2-101" value="" style="shape=partialRectangle;connectable=0;fillColor=none;top=0;left=0;bottom=0;right=0;editable=1;overflow=hidden;whiteSpace=wrap;html=1;" vertex="1" parent="OtP46GeCXcJWr2-U4KM2-100">
          <mxGeometry width="30" height="30" as="geometry">
            <mxRectangle width="30" height="30" as="alternateBounds" />
          </mxGeometry>
        </mxCell>
        <mxCell id="OtP46GeCXcJWr2-U4KM2-102" value="&lt;div style=&quot;color: rgb(33, 33, 33); background-color: rgb(255, 255, 254); font-family: Consolas, &amp;quot;Courier New&amp;quot;, monospace; line-height: 16px; white-space: pre;&quot;&gt;&lt;div style=&quot;line-height: 16px;&quot;&gt;dd.[Issued_Date]&lt;/div&gt;&lt;/div&gt;" style="shape=partialRectangle;connectable=0;fillColor=none;top=0;left=0;bottom=0;right=0;align=left;spacingLeft=6;overflow=hidden;whiteSpace=wrap;html=1;" vertex="1" parent="OtP46GeCXcJWr2-U4KM2-100">
          <mxGeometry x="30" width="260" height="30" as="geometry">
            <mxRectangle width="260" height="30" as="alternateBounds" />
          </mxGeometry>
        </mxCell>
        <mxCell id="OtP46GeCXcJWr2-U4KM2-103" value="" style="shape=tableRow;horizontal=0;startSize=0;swimlaneHead=0;swimlaneBody=0;fillColor=none;collapsible=0;dropTarget=0;points=[[0,0.5],[1,0.5]];portConstraint=eastwest;top=0;left=0;right=0;bottom=0;" vertex="1" parent="OtP46GeCXcJWr2-U4KM2-93">
          <mxGeometry y="120" width="290" height="30" as="geometry" />
        </mxCell>
        <mxCell id="OtP46GeCXcJWr2-U4KM2-104" value="" style="shape=partialRectangle;connectable=0;fillColor=none;top=0;left=0;bottom=0;right=0;editable=1;overflow=hidden;whiteSpace=wrap;html=1;" vertex="1" parent="OtP46GeCXcJWr2-U4KM2-103">
          <mxGeometry width="30" height="30" as="geometry">
            <mxRectangle width="30" height="30" as="alternateBounds" />
          </mxGeometry>
        </mxCell>
        <mxCell id="OtP46GeCXcJWr2-U4KM2-105" value="&lt;div style=&quot;color: rgb(33, 33, 33); background-color: rgb(255, 255, 254); font-family: Consolas, &amp;quot;Courier New&amp;quot;, monospace; line-height: 16px; white-space: pre;&quot;&gt;&lt;div style=&quot;line-height: 16px;&quot;&gt;dd.[MatDoc_Qty] &lt;span style=&quot;color: #0000ff;&quot;&gt;as&lt;/span&gt; [Quantity]&lt;/div&gt;&lt;/div&gt;" style="shape=partialRectangle;connectable=0;fillColor=none;top=0;left=0;bottom=0;right=0;align=left;spacingLeft=6;overflow=hidden;whiteSpace=wrap;html=1;" vertex="1" parent="OtP46GeCXcJWr2-U4KM2-103">
          <mxGeometry x="30" width="260" height="30" as="geometry">
            <mxRectangle width="260" height="30" as="alternateBounds" />
          </mxGeometry>
        </mxCell>
        <mxCell id="OtP46GeCXcJWr2-U4KM2-106" value="" style="shape=tableRow;horizontal=0;startSize=0;swimlaneHead=0;swimlaneBody=0;fillColor=none;collapsible=0;dropTarget=0;points=[[0,0.5],[1,0.5]];portConstraint=eastwest;top=0;left=0;right=0;bottom=0;" vertex="1" parent="OtP46GeCXcJWr2-U4KM2-93">
          <mxGeometry y="150" width="290" height="30" as="geometry" />
        </mxCell>
        <mxCell id="OtP46GeCXcJWr2-U4KM2-107" value="" style="shape=partialRectangle;connectable=0;fillColor=none;top=0;left=0;bottom=0;right=0;editable=1;overflow=hidden;whiteSpace=wrap;html=1;" vertex="1" parent="OtP46GeCXcJWr2-U4KM2-106">
          <mxGeometry width="30" height="30" as="geometry">
            <mxRectangle width="30" height="30" as="alternateBounds" />
          </mxGeometry>
        </mxCell>
        <mxCell id="OtP46GeCXcJWr2-U4KM2-108" value="&lt;div style=&quot;color: rgb(33, 33, 33); background-color: rgb(255, 255, 254); font-family: Consolas, &amp;quot;Courier New&amp;quot;, monospace; line-height: 16px; white-space: pre;&quot;&gt;d2.sum(Actual qty)&lt;/div&gt;" style="shape=partialRectangle;connectable=0;fillColor=none;top=0;left=0;bottom=0;right=0;align=left;spacingLeft=6;overflow=hidden;whiteSpace=wrap;html=1;" vertex="1" parent="OtP46GeCXcJWr2-U4KM2-106">
          <mxGeometry x="30" width="260" height="30" as="geometry">
            <mxRectangle width="260" height="30" as="alternateBounds" />
          </mxGeometry>
        </mxCell>
        <mxCell id="OtP46GeCXcJWr2-U4KM2-109" value="" style="shape=tableRow;horizontal=0;startSize=0;swimlaneHead=0;swimlaneBody=0;fillColor=none;collapsible=0;dropTarget=0;points=[[0,0.5],[1,0.5]];portConstraint=eastwest;top=0;left=0;right=0;bottom=0;" vertex="1" parent="OtP46GeCXcJWr2-U4KM2-93">
          <mxGeometry y="180" width="290" height="30" as="geometry" />
        </mxCell>
        <mxCell id="OtP46GeCXcJWr2-U4KM2-110" value="" style="shape=partialRectangle;connectable=0;fillColor=none;top=0;left=0;bottom=0;right=0;editable=1;overflow=hidden;whiteSpace=wrap;html=1;" vertex="1" parent="OtP46GeCXcJWr2-U4KM2-109">
          <mxGeometry width="30" height="30" as="geometry">
            <mxRectangle width="30" height="30" as="alternateBounds" />
          </mxGeometry>
        </mxCell>
        <mxCell id="OtP46GeCXcJWr2-U4KM2-111" value="&lt;div style=&quot;color: rgb(33, 33, 33); background-color: rgb(255, 255, 254); font-family: Consolas, &amp;quot;Courier New&amp;quot;, monospace; line-height: 16px; white-space: pre;&quot;&gt;d2.sum([MatDoc_Qty])&lt;/div&gt;" style="shape=partialRectangle;connectable=0;fillColor=none;top=0;left=0;bottom=0;right=0;align=left;spacingLeft=6;overflow=hidden;whiteSpace=wrap;html=1;" vertex="1" parent="OtP46GeCXcJWr2-U4KM2-109">
          <mxGeometry x="30" width="260" height="30" as="geometry">
            <mxRectangle width="260" height="30" as="alternateBounds" />
          </mxGeometry>
        </mxCell>
        <mxCell id="OtP46GeCXcJWr2-U4KM2-112" value="" style="shape=flexArrow;endArrow=classic;startArrow=classic;html=1;rounded=0;exitX=1;exitY=0.5;exitDx=0;exitDy=0;entryX=0.011;entryY=0.259;entryDx=0;entryDy=0;entryPerimeter=0;" edge="1" parent="1" source="OtP46GeCXcJWr2-U4KM2-89" target="OtP46GeCXcJWr2-U4KM2-100">
          <mxGeometry width="100" height="100" relative="1" as="geometry">
            <mxPoint x="1255" y="965" as="sourcePoint" />
            <mxPoint x="1495" y="980" as="targetPoint" />
          </mxGeometry>
        </mxCell>
        <mxCell id="OtP46GeCXcJWr2-U4KM2-113" value="" style="endArrow=classic;html=1;rounded=0;exitX=0.5;exitY=1;exitDx=0;exitDy=0;entryX=0.5;entryY=0;entryDx=0;entryDy=0;" edge="1" parent="1" source="OtP46GeCXcJWr2-U4KM2-89" target="OtP46GeCXcJWr2-U4KM2-114">
          <mxGeometry width="50" height="50" relative="1" as="geometry">
            <mxPoint x="935" y="900" as="sourcePoint" />
            <mxPoint x="935" y="1020" as="targetPoint" />
          </mxGeometry>
        </mxCell>
        <mxCell id="OtP46GeCXcJWr2-U4KM2-114" value="Left join with&amp;nbsp;&lt;span style=&quot;font-weight: 700; text-wrap-mode: nowrap;&quot;&gt;&lt;font style=&quot;color: rgb(255, 48, 25);&quot;&gt;CTE MRP&lt;/font&gt;&lt;/span&gt;&lt;div&gt;&lt;span style=&quot;font-weight: 700; text-wrap-mode: nowrap;&quot;&gt;on Material Code , Plant code&lt;/span&gt;&lt;/div&gt;&lt;div&gt;&lt;span style=&quot;font-weight: 700; text-wrap-mode: nowrap;&quot;&gt;&lt;br&gt;&lt;/span&gt;&lt;/div&gt;&lt;div&gt;&lt;span style=&quot;font-weight: 700; text-wrap-mode: nowrap;&quot;&gt;&lt;br&gt;&lt;/span&gt;&lt;/div&gt;&lt;div&gt;&lt;span style=&quot;text-wrap-mode: nowrap;&quot;&gt;&lt;b&gt;&lt;font style=&quot;color: rgb(51, 51, 255);&quot;&gt;This step should not create more rows， because material+plant code is unique&amp;nbsp;&lt;/font&gt;&lt;/b&gt;&lt;/span&gt;&lt;/div&gt;" style="rounded=0;whiteSpace=wrap;html=1;" vertex="1" parent="1">
          <mxGeometry x="680" y="1030" width="480" height="110" as="geometry" />
        </mxCell>
        <mxCell id="OtP46GeCXcJWr2-U4KM2-115" value="Left join with&amp;nbsp;&lt;span style=&quot;font-weight: 700; text-wrap-mode: nowrap;&quot;&gt;&lt;font style=&quot;color: rgb(255, 48, 25);&quot;&gt;CTE MRP History&lt;/font&gt;&lt;/span&gt;&lt;div&gt;&lt;span style=&quot;font-weight: 700; text-wrap-mode: nowrap;&quot;&gt;on Material Code , Plant code&lt;/span&gt;&lt;/div&gt;&lt;div&gt;&lt;span style=&quot;font-weight: 700; text-wrap-mode: nowrap;&quot;&gt;&lt;br&gt;&lt;/span&gt;&lt;/div&gt;&lt;div&gt;&lt;span style=&quot;font-weight: 700; text-wrap-mode: nowrap;&quot;&gt;&lt;br&gt;&lt;/span&gt;&lt;/div&gt;&lt;div&gt;&lt;span style=&quot;text-wrap-mode: nowrap;&quot;&gt;&lt;b&gt;&lt;font style=&quot;color: rgb(51, 51, 255);&quot;&gt;must have duplicated rows， because material+plant code is not unique&amp;nbsp;&lt;/font&gt;&lt;/b&gt;&lt;/span&gt;&lt;/div&gt;" style="rounded=0;whiteSpace=wrap;html=1;" vertex="1" parent="1">
          <mxGeometry x="675" y="1210" width="480" height="110" as="geometry" />
        </mxCell>
      </root>
    </mxGraphModel>
  </diagram>
</mxfile>
